<?xml version="1.0" encoding="iso-8859-1"?>
<!-- Generator: Adobe Illustrator 23.0.3, SVG Export Plug-In . SVG Version: 6.00 Build 0)  -->
<svg version="1.1" id="&#x56FE;&#x5C42;_1" xmlns="http://www.w3.org/2000/svg" xmlns:xlink="http://www.w3.org/1999/xlink" x="0px"
	 y="0px" width="1024px" height="1024px" viewBox="0 0 1024 1024" style="enable-background:new 0 0 1024 1024;"
	 xml:space="preserve">
<g>
	<path style="fill:none;" d="M158.868,160.114c-26.441,26.441-41.003,61.422-41.003,98.501v138.24h158.109
		c35.646,0,69.276-14,94.696-39.42c25.421-25.42,39.42-59.051,39.42-94.696V119.111H257.369
		C220.291,119.111,185.309,133.672,158.868,160.114z"/>
	<path d="M899.244,64.111H257.369c-51.77,0-100.562,20.283-137.392,57.112c-36.829,36.829-57.112,85.623-57.112,137.392v641.875
		c0,32.986,26.836,59.823,59.823,59.823h474.945c15.188,0,27.5-12.312,27.5-27.5s-12.312-27.5-27.5-27.5H122.688
		c-2.569,0-4.823-2.254-4.823-4.823V451.855h158.109c50.336,0,97.778-19.721,133.587-55.529
		c35.809-35.809,55.529-83.251,55.529-133.587V119.111h434.153c2.569,0,4.823,2.254,4.823,4.823v481.922
		c0,15.188,12.312,27.5,27.5,27.5s27.5-12.312,27.5-27.5V123.934C959.067,90.947,932.23,64.111,899.244,64.111z M410.091,262.739
		c0,35.645-14,69.275-39.42,94.696c-25.42,25.421-59.051,39.42-94.696,39.42H117.865v-138.24c0-37.079,14.562-72.06,41.003-98.501
		c26.441-26.441,61.423-41.003,98.501-41.003h152.722V262.739z"/>
	<path d="M931.567,712.646H766.783V549.813c0-15.188-12.312-27.5-27.5-27.5s-27.5,12.312-27.5,27.5v162.832H546.999
		c-15.188,0-27.5,12.312-27.5,27.5s12.312,27.5,27.5,27.5h164.784v162.832c0,15.188,12.312,27.5,27.5,27.5s27.5-12.312,27.5-27.5
		V767.646h164.784c15.188,0,27.5-12.312,27.5-27.5S946.755,712.646,931.567,712.646z"/>
</g>
</svg>
