<?xml version="1.0" standalone="no"?><!DOCTYPE svg PUBLIC "-//W3C//DTD SVG 1.1//EN" "http://www.w3.org/Graphics/SVG/1.1/DTD/svg11.dtd"><svg class="icon" width="200px" height="200.00px" viewBox="0 0 1024 1024" version="1.1" xmlns="http://www.w3.org/2000/svg"><path d="M721.92 333.418l0.91 440.65c0 23.104-9.546 35.475-32.746 35.475l-336.554-0.908c-23.181 0-33.383-10.552-33.383-33.655V333.418H268v441.731c0 46.334 37.705 84.012 84.047 84.012h336.044c46.344 0 84.068-37.678 84.068-84.012V333.418H721.92z"  /><path d="M390.46 427.958v312.805c0 2.036 0.291 4.003 0.815 5.88 15.392-0.012 30.785-0.047 46.174-0.102 0.509-1.847 0.789-3.78 0.789-5.781V428.094c-15.925-0.064-31.851-0.109-47.778-0.136zM601.398 429.091v311.672c0 1.627 0.187 3.212 0.529 4.743 15.564-0.068 31.133-0.118 46.7-0.147 0.32-1.486 0.496-3.023 0.496-4.601V429.22c-15.908-0.023-31.816-0.066-47.725-0.129zM859.49 248.742H672.856v-52.638c0.854-42.386-34.059-52.608-68.913-52.608H436.238c-43.288 0-67.972 16.28-67.972 51.153l-0.182 54.092H178.493v51.423h680.996l0.001-51.422z m-234.377 0H415.046v-36.809c0-11.664 8.225-21.831 19.917-21.831l168.054 0.909c11.671 0 21.945 8.383 21.945 20.047l0.151 37.684zM497.612 429.124v311.671c0 1.627 0.186 3.215 0.524 4.744 15.426-0.068 30.854-0.116 46.282-0.146 0.318-1.485 0.492-3.022 0.492-4.603V429.253c-15.765-0.024-31.533-0.065-47.298-0.129z"  /></svg>