<?xml version="1.0" encoding="iso-8859-1"?>
<!-- Generator: Adobe Illustrator 23.0.3, SVG Export Plug-In . SVG Version: 6.00 Build 0)  -->
<svg version="1.1" id="&#x56FE;&#x5C42;_1" xmlns="http://www.w3.org/2000/svg" xmlns:xlink="http://www.w3.org/1999/xlink" x="0px"
	 y="0px" width="1024px" height="1024px" viewBox="0 0 1024 1024" style="enable-background:new 0 0 1024 1024;"
	 xml:space="preserve">
<g>
	<path d="M598.578,905.785h-454.8c-9.757,0-18-8.06-18-17.6v-750.9c0-9.54,8.243-17.6,18-17.6h648.9c9.757,0,18,8.06,18,17.6v336.1
		c0,15.188,12.312,27.5,27.5,27.5s27.5-12.312,27.5-27.5v-336.1c0-40.032-32.748-72.6-73-72.6h-648.9c-40.252,0-73,32.568-73,72.6
		v750.9c0,40.031,32.748,72.6,73,72.6h454.8c15.188,0,27.5-12.312,27.5-27.5S613.766,905.785,598.578,905.785z"/>
	<path d="M621.679,429.285c0-15.188-12.312-27.5-27.5-27.5h-355c-15.188,0-27.5,12.312-27.5,27.5s12.312,27.5,27.5,27.5h355
		C609.366,456.785,621.679,444.473,621.679,429.285z"/>
	<path d="M711.578,249.685c0-15.188-12.312-27.5-27.5-27.5h-453.2c-15.188,0-27.5,12.312-27.5,27.5s12.312,27.5,27.5,27.5h453.2
		C699.266,277.185,711.578,264.873,711.578,249.685z"/>
	<path d="M256.278,583.285c-15.188,0-27.5,12.312-27.5,27.5s12.312,27.5,27.5,27.5h197.3c15.188,0,27.5-12.312,27.5-27.5
		s-12.312-27.5-27.5-27.5H256.278z"/>
	<path d="M947.635,764.116c-9.966-11.462-27.335-12.674-38.797-2.711l-69.684,60.581V600.046c0-15.188-12.312-27.5-27.5-27.5
		s-27.5,12.312-27.5,27.5v223.146l-69.48-61.609c-11.364-10.075-28.745-9.034-38.821,2.331
		c-10.076,11.364-9.032,28.745,2.331,38.821l114.089,101.163c5.203,4.613,11.724,6.924,18.246,6.924
		c6.432,0,12.866-2.247,18.042-6.746l116.363-101.163C956.386,792.948,957.6,775.578,947.635,764.116z"/>
</g>
</svg>
