<?xml version="1.0" encoding="iso-8859-1"?>
<!-- Generator: Adobe Illustrator 23.0.3, SVG Export Plug-In . SVG Version: 6.00 Build 0)  -->
<svg version="1.1" id="&#x56FE;&#x5C42;_1" xmlns="http://www.w3.org/2000/svg" xmlns:xlink="http://www.w3.org/1999/xlink" x="0px"
	 y="0px" width="1024px" height="1024px" viewBox="0 0 1024 1024" style="enable-background:new 0 0 1024 1024;"
	 xml:space="preserve">
<g>
	<polygon style="fill:none;" points="680.406,746.272 696.812,834.388 787.797,812.101 890.325,661.973 788.283,587.423 	"/>
	<path d="M601.578,904.785h-454.8c-9.757,0-18-8.06-18-17.6v-750.9c0-9.54,8.243-17.6,18-17.6h648.9c9.757,0,18,8.06,18,17.6v336.1
		c0,15.188,12.312,27.5,27.5,27.5s27.5-12.312,27.5-27.5v-336.1c0-40.032-32.748-72.6-73-72.6h-648.9c-40.252,0-73,32.568-73,72.6
		v750.9c0,40.031,32.748,72.6,73,72.6h454.8c15.188,0,27.5-12.312,27.5-27.5S616.766,904.785,601.578,904.785z"/>
	<path d="M624.679,428.285c0-15.188-12.312-27.5-27.5-27.5h-355c-15.188,0-27.5,12.312-27.5,27.5s12.312,27.5,27.5,27.5h355
		C612.366,455.785,624.679,443.473,624.679,428.285z"/>
	<path d="M714.578,248.685c0-15.188-12.312-27.5-27.5-27.5h-453.2c-15.188,0-27.5,12.312-27.5,27.5s12.312,27.5,27.5,27.5h453.2
		C702.266,276.185,714.578,263.873,714.578,248.685z"/>
	<path d="M259.278,582.285c-15.188,0-27.5,12.312-27.5,27.5s12.312,27.5,27.5,27.5h197.3c15.188,0,27.5-12.312,27.5-27.5
		s-12.312-27.5-27.5-27.5H259.278z"/>
	<path d="M944.281,633.277L797.746,526.222c-6.021-4.398-13.569-6.162-20.92-4.891c-7.348,1.273-13.863,5.477-18.053,11.646
		L628.55,724.732c-4.072,5.997-5.612,13.358-4.285,20.484l23.802,127.836c1.384,7.434,5.768,13.97,12.12,18.071
		c4.484,2.895,9.67,4.396,14.916,4.396c2.186,0,4.382-0.261,6.542-0.79l129.466-31.714c6.585-1.613,12.343-5.602,16.166-11.201
		l123.491-180.823C959.142,658.73,956.271,642.036,944.281,633.277z M787.797,812.101l-90.984,22.287l-16.406-88.115l107.877-158.85
		l102.042,74.55L787.797,812.101z"/>
</g>
</svg>
