<?xml version="1.0" standalone="no"?><!DOCTYPE svg PUBLIC "-//W3C//DTD SVG 1.1//EN" "http://www.w3.org/Graphics/SVG/1.1/DTD/svg11.dtd"><svg class="icon" width="200px" height="200.00px" viewBox="0 0 1024 1024" version="1.1" xmlns="http://www.w3.org/2000/svg"><path d="M512 0A512 512 0 1 0 1024 512 512 512 0 0 0 512 0z m0 969.975172a459.034483 459.034483 0 1 1 459.034483-459.034482 459.034483 459.034483 0 0 1-459.034483 459.034482z"  /><path d="M776.827586 487.282759l-367.580689-211.862069a35.310345 35.310345 0 0 0-18.714483-4.943449A37.782069 37.782069 0 0 0 353.103448 307.906207v423.724138a37.428966 37.428966 0 0 0 37.782069 37.782069 35.310345 35.310345 0 0 0 18.714483-4.943448l367.58069-211.862069A37.782069 37.782069 0 0 0 776.827586 487.282759z m-369.346207 217.15862V335.801379l319.558621 184.32z"  /></svg>