<?xml version="1.0" encoding="iso-8859-1"?>
<!-- Generator: Adobe Illustrator 23.0.3, SVG Export Plug-In . SVG Version: 6.00 Build 0)  -->
<svg version="1.1" id="&#x56FE;&#x5C42;_1" xmlns="http://www.w3.org/2000/svg" xmlns:xlink="http://www.w3.org/1999/xlink" x="0px"
	 y="0px" width="1024px" height="1024px" viewBox="0 0 1024 1024" style="enable-background:new 0 0 1024 1024;"
	 xml:space="preserve">
<g>
	<path style="fill:none;" d="M513,397.769c-30.546,0-59.264,11.895-80.863,33.495c-21.599,21.599-33.495,50.317-33.495,80.863
		s11.895,59.264,33.495,80.863s50.317,33.495,80.863,33.495c30.546,0,59.264-11.895,80.863-33.495s33.495-50.317,33.495-80.863
		s-11.895-59.264-33.495-80.863C572.264,409.664,543.546,397.769,513,397.769z"/>
	<path style="fill:none;" d="M878.953,439.325c-19.241-30.701-48.078-60.36-83.394-85.771
		c-37.209-26.773-81.808-48.906-128.976-64.007c-51.057-16.346-104.43-24.634-158.635-24.634
		c-54.049,0-106.799,8.259-156.786,24.547c-46.619,15.191-88.714,36.593-125.116,63.613c-33.928,25.184-61.607,54.707-80.044,85.38
		c-17.653,29.367-26.603,58.743-26.603,87.312c0,27.49,8.804,54.777,26.167,81.105c18.155,27.528,45.851,53.784,80.093,75.929
		c36.569,23.65,79.407,42.331,127.325,55.524C403.639,752.27,457.476,759.341,513,759.341s109.361-7.072,160.015-21.018
		c47.918-13.193,90.756-31.875,127.325-55.524c34.242-22.145,61.937-48.4,80.093-75.929c17.363-26.327,26.167-53.615,26.167-81.105
		C906.6,497.68,897.298,468.597,878.953,439.325z M513,681.485c-93.534,0-169.358-75.824-169.358-169.358
		S419.466,342.769,513,342.769s169.358,75.824,169.358,169.358S606.534,681.485,513,681.485z"/>
	<path d="M507.949,209.913C260.194,209.913,64.4,368.621,64.4,525.765S265.245,814.341,513,814.341S961.6,682.91,961.6,525.765
		S755.704,209.913,507.949,209.913z M880.433,606.87c-18.155,27.528-45.851,53.784-80.093,75.929
		c-36.569,23.65-79.407,42.331-127.325,55.524C622.361,752.27,568.524,759.341,513,759.341s-109.361-7.072-160.015-21.018
		c-47.918-13.193-90.756-31.875-127.325-55.524c-34.242-22.145-61.937-48.4-80.093-75.929
		c-17.363-26.327-26.167-53.615-26.167-81.105c0-28.569,8.951-57.944,26.603-87.312c18.437-30.672,46.116-60.196,80.044-85.38
		c36.402-27.02,78.497-48.422,125.116-63.613c49.987-16.288,102.737-24.547,156.786-24.547c54.205,0,107.577,8.288,158.635,24.634
		c47.168,15.101,91.768,37.234,128.976,64.007c35.316,25.411,64.153,55.07,83.394,85.771c18.345,29.272,27.646,58.354,27.646,86.44
		C906.6,553.255,897.796,580.542,880.433,606.87z"/>
	<path d="M513,342.769c-93.534,0-169.358,75.824-169.358,169.358S419.466,681.485,513,681.485s169.358-75.824,169.358-169.358
		S606.534,342.769,513,342.769z M593.863,592.991c-21.599,21.599-50.317,33.495-80.863,33.495
		c-30.546,0-59.264-11.895-80.863-33.495s-33.495-50.317-33.495-80.863s11.895-59.264,33.495-80.863
		c21.599-21.599,50.317-33.495,80.863-33.495c30.546,0,59.264,11.895,80.863,33.495c21.599,21.599,33.495,50.317,33.495,80.863
		S615.463,571.391,593.863,592.991z"/>
</g>
</svg>
