<?xml version="1.0" encoding="iso-8859-1"?>
<!-- Generator: Adobe Illustrator 23.0.3, SVG Export Plug-In . SVG Version: 6.00 Build 0)  -->
<svg version="1.1" id="&#x56FE;&#x5C42;_1" xmlns="http://www.w3.org/2000/svg" xmlns:xlink="http://www.w3.org/1999/xlink" x="0px"
	 y="0px" width="1024px" height="1024px" viewBox="0 0 1024 1024" style="enable-background:new 0 0 1024 1024;"
	 xml:space="preserve">
<g>
	<path d="M936.703,589.492c-11.705-9.676-29.037-8.036-38.718,3.669L746.483,776.377l-62.851-67.701
		c-10.333-11.133-27.735-11.776-38.864-1.444c-11.131,10.333-11.777,27.733-1.444,38.864l84.2,90.699
		c5.212,5.613,12.518,8.79,20.153,8.79c0.263,0,0.526-0.004,0.789-0.012c7.919-0.227,15.356-3.858,20.405-9.964l171.5-207.399
		C950.05,616.506,948.408,599.171,936.703,589.492z"/>
	<path d="M608.578,905.785h-454.8c-9.757,0-18-8.06-18-17.6v-750.9c0-9.54,8.243-17.6,18-17.6h648.9c9.757,0,18,8.06,18,17.6v336.1
		c0,15.188,12.312,27.5,27.5,27.5s27.5-12.312,27.5-27.5v-336.1c0-40.032-32.748-72.6-73-72.6h-648.9c-40.252,0-73,32.568-73,72.6
		v750.9c0,40.031,32.748,72.6,73,72.6h454.8c15.188,0,27.5-12.312,27.5-27.5S623.766,905.785,608.578,905.785z"/>
	<path d="M631.679,429.285c0-15.188-12.312-27.5-27.5-27.5h-355c-15.188,0-27.5,12.312-27.5,27.5s12.312,27.5,27.5,27.5h355
		C619.366,456.785,631.679,444.473,631.679,429.285z"/>
	<path d="M721.578,249.685c0-15.188-12.312-27.5-27.5-27.5h-453.2c-15.188,0-27.5,12.312-27.5,27.5s12.312,27.5,27.5,27.5h453.2
		C709.266,277.185,721.578,264.873,721.578,249.685z"/>
	<path d="M266.278,583.285c-15.188,0-27.5,12.312-27.5,27.5s12.312,27.5,27.5,27.5h197.3c15.188,0,27.5-12.312,27.5-27.5
		s-12.312-27.5-27.5-27.5H266.278z"/>
</g>
</svg>
