<?xml version="1.0" encoding="iso-8859-1"?>
<!-- Generator: Adobe Illustrator 23.0.3, SVG Export Plug-In . SVG Version: 6.00 Build 0)  -->
<svg version="1.1" id="&#x56FE;&#x5C42;_1" xmlns="http://www.w3.org/2000/svg" xmlns:xlink="http://www.w3.org/1999/xlink" x="0px"
	 y="0px" width="1024px" height="1024px" viewBox="0 0 1024 1024" style="enable-background:new 0 0 1024 1024;"
	 xml:space="preserve">
<g>
	<path style="fill:none;" d="M756.095,437.794c0-42.978-8.405-84.641-24.981-123.832c-16.022-37.882-38.972-71.914-68.21-101.153
		s-63.271-52.188-101.153-68.21c-39.191-16.576-80.854-24.981-123.832-24.981s-84.641,8.405-123.832,24.981
		c-37.882,16.023-71.914,38.972-101.153,68.21s-52.188,63.271-68.21,101.153c-16.576,39.191-24.981,80.854-24.981,123.832
		s8.405,84.641,24.981,123.832c16.022,37.882,38.972,71.914,68.21,101.153s63.271,52.188,101.153,68.21
		c39.191,16.576,80.854,24.981,123.832,24.981s84.641-8.405,123.832-24.981c37.882-16.022,71.914-38.972,101.153-68.21
		s52.188-63.271,68.21-101.153C747.69,522.435,756.095,480.772,756.095,437.794z M614.799,281.816
		c-5.438,6.556-13.28,9.944-21.181,9.944c-6.187,0-12.408-2.076-17.542-6.334c-38.706-32.105-87.771-49.787-138.157-49.787
		c-37.702,0-74.814,9.827-107.326,28.419c-13.184,7.539-29.985,2.963-37.524-10.221s-2.963-29.984,10.221-37.524
		c40.812-23.338,87.366-35.674,134.629-35.674c63.181,0,124.716,22.18,173.271,62.455
		C622.879,252.79,624.495,270.126,614.799,281.816z"/>
	<path d="M947.44,908.55L723.329,684.438c-0.967-0.967-1.99-1.844-3.056-2.637c56.588-65.423,90.821-150.717,90.821-244.007
		c0-206.099-167.077-373.176-373.176-373.176S64.743,231.695,64.743,437.794S231.82,810.97,437.919,810.97
		c93.227,0,178.468-34.188,243.874-90.708c0.795,1.07,1.675,2.096,2.645,3.067L908.55,947.44c5.369,5.37,12.407,8.055,19.445,8.055
		s14.076-2.685,19.445-8.055C958.18,936.701,958.18,919.289,947.44,908.55z M561.75,730.989
		c-39.191,16.576-80.854,24.981-123.832,24.981s-84.641-8.405-123.832-24.981c-37.882-16.022-71.914-38.972-101.153-68.21
		s-52.188-63.271-68.21-101.153c-16.576-39.191-24.981-80.854-24.981-123.832s8.405-84.641,24.981-123.832
		c16.022-37.882,38.972-71.914,68.21-101.153s63.271-52.188,101.153-68.21c39.191-16.576,80.854-24.981,123.832-24.981
		s84.641,8.405,123.832,24.981c37.882,16.023,71.914,38.972,101.153,68.21s52.188,63.271,68.21,101.153
		c16.576,39.191,24.981,80.854,24.981,123.832s-8.405,84.641-24.981,123.832c-16.022,37.882-38.972,71.914-68.21,101.153
		S599.632,714.966,561.75,730.989z"/>
	<path d="M611.189,243.094c-48.555-40.274-110.09-62.455-173.271-62.455c-47.263,0-93.817,12.336-134.629,35.674
		c-13.185,7.54-17.76,24.339-10.221,37.524s24.34,17.76,37.524,10.221c32.512-18.592,69.625-28.419,107.326-28.419
		c50.386,0,99.451,17.681,138.157,49.787c5.134,4.258,11.355,6.335,17.542,6.334c7.9,0,15.743-3.388,21.181-9.944
		C624.495,270.126,622.879,252.79,611.189,243.094z"/>
</g>
</svg>
