<?xml version="1.0" encoding="iso-8859-1"?>
<!-- Generator: Adobe Illustrator 23.0.3, SVG Export Plug-In . SVG Version: 6.00 Build 0)  -->
<svg version="1.1" id="&#x56FE;&#x5C42;_1" xmlns="http://www.w3.org/2000/svg" xmlns:xlink="http://www.w3.org/1999/xlink" x="0px"
	 y="0px" width="1024px" height="1024px" viewBox="0 0 1024 1024" style="enable-background:new 0 0 1024 1024;"
	 xml:space="preserve">
<g>
	<path style="fill:none;" d="M772.516,604.328c-72.195,0-130.931,58.735-130.931,130.932s58.735,130.932,130.931,130.932
		c72.196,0,130.932-58.735,130.932-130.932S844.712,604.328,772.516,604.328z M837.808,762.76H707.225
		c-15.188,0-27.5-12.312-27.5-27.5s12.312-27.5,27.5-27.5h130.583c15.188,0,27.5,12.312,27.5,27.5S852.995,762.76,837.808,762.76z"
		/>
	<path d="M608.578,905.785h-454.8c-9.757,0-18-8.06-18-17.6v-750.9c0-9.54,8.243-17.6,18-17.6h648.9c9.757,0,18,8.06,18,17.6v336.1
		c0,15.188,12.312,27.5,27.5,27.5s27.5-12.312,27.5-27.5v-336.1c0-40.032-32.748-72.6-73-72.6h-648.9c-40.252,0-73,32.568-73,72.6
		v750.9c0,40.031,32.748,72.6,73,72.6h454.8c15.188,0,27.5-12.312,27.5-27.5S623.766,905.785,608.578,905.785z"/>
	<path d="M631.679,429.285c0-15.188-12.312-27.5-27.5-27.5h-355c-15.188,0-27.5,12.312-27.5,27.5s12.312,27.5,27.5,27.5h355
		C619.366,456.785,631.679,444.473,631.679,429.285z"/>
	<path d="M721.578,249.685c0-15.188-12.312-27.5-27.5-27.5h-453.2c-15.188,0-27.5,12.312-27.5,27.5s12.312,27.5,27.5,27.5h453.2
		C709.266,277.185,721.578,264.873,721.578,249.685z"/>
	<path d="M266.278,583.285c-15.188,0-27.5,12.312-27.5,27.5s12.312,27.5,27.5,27.5h197.3c15.188,0,27.5-12.312,27.5-27.5
		s-12.312-27.5-27.5-27.5H266.278z"/>
	<path d="M772.516,549.328c-102.522,0-185.931,83.408-185.931,185.932s83.408,185.932,185.931,185.932
		c102.523,0,185.932-83.408,185.932-185.932S875.039,549.328,772.516,549.328z M772.516,866.191
		c-72.195,0-130.931-58.735-130.931-130.932s58.735-130.932,130.931-130.932c72.196,0,130.932,58.735,130.932,130.932
		S844.712,866.191,772.516,866.191z"/>
	<path d="M837.808,707.76H707.225c-15.188,0-27.5,12.312-27.5,27.5s12.312,27.5,27.5,27.5h130.583c15.188,0,27.5-12.312,27.5-27.5
		S852.995,707.76,837.808,707.76z"/>
</g>
</svg>
